# xmcd
#
# Track frame offsets: 
#        150
#        36760
#        67842
#        93657
#        111752
#        141572
#        143327
#        167440
#        201570
#        209672
#        231940
#        271960
#
# Disc length: 3718 seconds
#
# Revision: 0
# Processed by: cddbd v1.5.2PL0 Copyright (c) Steve Scherf et al.
# Submitted via: ExactAudioCopy v1.0b1
#
DISCID=b30e840c
DTITLE=Sundance - Bleed The Sun
DYEAR=1998
DGENRE=Heavy Metal
TTITLE0=Clockwise
TTITLE1=Dark rivers of the heart
TTITLE2=Shadowlands
TTITLE3=Bleed the sun:Part I - Sunset by the river
TTITLE4=Bleed the sun:Part II - Night within
TTITLE5=Bleed the sun:Part III - Remains of the day
TTITLE6=The one in wait
TTITLE7=Chameleon
TTITLE8=When Words Sing
TTITLE9=Snide
TTITLE10=World emotion
TTITLE11=Silent echo
EXTD=
EXTT0=
EXTT1=
EXTT2=
EXTT3=
EXTT4=
EXTT5=
EXTT6=
EXTT7=
EXTT8=
EXTT9=
EXTT10=
EXTT11=
PLAYORDER=
